<?xml version="1.0" standalone="no"?>
<svg viewBox="0 0 200 200" xmlns="http://www.w3.org/2000/svg">
  <path fill="#FFFFFF" d="M49.2,-75.5C63.1,-67.6,73.2,-52.8,77.4,-37.2C81.5,-21.7,79.7,-5.2,76.4,10.3C73.1,25.8,68.4,40.5,59.8,53.6C51.2,66.8,38.8,78.4,24.4,82.1C10,85.9,-6.4,81.7,-21.7,76.2C-37.1,70.6,-51.3,63.8,-63.6,53.1C-75.9,42.5,-86.2,28.2,-89.6,12.2C-93,-3.9,-89.6,-21.6,-81.1,-35.7C-72.6,-49.8,-59.1,-60.3,-44.7,-68C-30.4,-75.7,-15.2,-80.5,1.2,-82.4C17.6,-84.3,35.3,-83.3,49.2,-75.5Z" transform="translate(100 100)" />
</svg>
