<svg xmlns="http://www.w3.org/2000/svg" enable-background="new 0 0 47.5 47.5" viewBox="0 0 47.5 47.5"><defs><clipPath id="a" clipPathUnits="userSpaceOnUse"><path d="M 0,38 38,38 38,0 0,0 0,38 Z"/></clipPath></defs><g clip-path="url(#a)" transform="matrix(1.25 0 0 -1.25 0 47.5)"><path fill="#ccd6dd" d="m 0,0 c 1.688,-18.224 -10.312,-31.224 -29.535,-29.536 8.199,-7.717 21.091,-7.588 29.107,0.429 C 7.589,-21.091 7.719,-8.198 0,0" transform="translate(31.311 36.224)"/><path fill="#b8c5cd" d="m 0,0 c -0.453,-0.454 -0.453,-1.189 0,-1.644 0.454,-0.453 1.189,-0.453 1.644,0 0.454,0.455 0.455,1.19 0,1.644 C 1.189,0.454 0.454,0.454 0,0" transform="translate(31.705 21.085)"/><path fill="#b8c5cd" d="m 0,0 c -0.682,-0.681 -0.682,-1.783 0,-2.465 0.68,-0.681 1.784,-0.681 2.464,0 0.681,0.682 0.681,1.784 0,2.465 C 1.784,0.682 0.68,0.682 0,0" transform="translate(15.683 6.705)"/><path fill="#b8c5cd" d="m 0,0 c -1.135,-1.135 -2.974,-1.135 -4.108,0 -1.135,1.135 -1.135,2.975 0,4.107 1.134,1.136 2.973,1.136 4.108,0 C 1.135,2.975 1.135,1.135 0,0" transform="translate(29.651 8.852)"/></g></svg>