<svg xmlns="http://www.w3.org/2000/svg" enable-background="new 0 0 47.5 47.5" viewBox="0 0 47.5 47.5"><defs><clipPath id="a" clipPathUnits="userSpaceOnUse"><path d="M 0,38 38,38 38,0 0,0 0,38 Z"/></clipPath></defs><g clip-path="url(#a)" transform="matrix(1.25 0 0 -1.25 0 47.5)"><path fill="#ccd6dd" d="M 0,0 C 0,4.984 -1.934,9.505 -5.073,12.894 3.961,11.932 11,4.29 11,-5 c 0,-9.941 -8.06,-18 -18,-18 -4.303,0 -8.25,1.515 -11.347,4.033 7.163,0.245 13.305,4.451 16.35,10.485 C -1.375,-7.25 -4.792,-7.281 -4.959,-5 -5.113,-2.87 0,-2.26 0,0" transform="translate(26 24)"/><path fill="#b8c5cd" d="M 0,0 C 0,-1.934 1.566,-3.5 3.5,-3.5 5.434,-3.5 7,-1.934 7,0 7,1.934 5.434,3.5 3.5,3.5 1.566,3.5 0,1.934 0,0" transform="translate(23 8.5)"/><path fill="#b8c5cd" d="m 0,0 c 0,-0.553 -0.447,-1 -1,-1 -0.553,0 -1,0.447 -1,1 0,0.552 0.447,1 1,1 0.553,0 1,-0.448 1,-1" transform="translate(29 30)"/><path fill="#b8c5cd" d="m 0,0 c 0,-0.553 -0.447,-1 -1,-1 -0.553,0 -1,0.447 -1,1 0,0.553 0.447,1 1,1 0.553,0 1,-0.447 1,-1" transform="translate(20 5)"/><path fill="#b8c5cd" d="M 0,0 C 0,-1.104 0.896,-2 2,-2 3.104,-2 4,-1.104 4,0 4,1.104 3.104,2 2,2 0.896,2 0,1.104 0,0" transform="translate(32 17)"/><path fill="#99aab5" d="M 0,0 C 0.775,0.819 1.48,1.705 2.104,2.651 7.554,1.425 9.741,2.924 9.421,1.845 9.08,0.697 4.623,-1.163 0,0" transform="translate(20.797 10.977)"/><path fill="#99aab5" d="M 0,0 C 0,-1.381 1.12,-2.5 2.5,-2.5 3.88,-2.5 5,-1.381 5,0 5,1.381 3.88,2.5 2.5,2.5 1.12,2.5 0,1.381 0,0" transform="translate(27 22.5)"/></g></svg>