<?xml version="1.0" encoding="UTF-8"?>
<svg xmlns="http://www.w3.org/2000/svg" xmlns:xlink="http://www.w3.org/1999/xlink" viewBox="0 0 100 100" width="100px" height="100px">
<g id="surface4209744">
<path style=" stroke:none;fill-rule:nonzero;fill:rgb(60.784316%,25.882354%,75.686276%);fill-opacity:1;" d="M 50 24 C 23.085938 24 2 35.421875 2 50 C 2 64.578125 23.085938 76 50 76 C 76.914062 76 98 64.578125 98 50 C 98 35.421875 76.914062 24 50 24 Z M 45.015625 32 L 50.257812 32 L 48.59375 40 L 53.273438 40 C 56.242188 40 58.234375 40.414062 59.367188 41.453125 C 60.476562 42.476562 60.8125 44.15625 60.367188 46.445312 L 58.289062 56 L 52.960938 56 L 54.875 47.164062 C 55.109375 45.953125 55.015625 45.109375 54.609375 44.664062 C 54.203125 44.21875 53.3125 44 51.976562 44 L 47.78125 44 L 45.25 56 L 40 56 Z M 22 40 L 32.664062 40 C 37.75 40 40.828125 43.40625 39.625 48.492188 C 38.226562 54.398438 34.476562 56 27.585938 56 L 24.289062 56 L 23.242188 62 L 17.945312 62 Z M 64 40 L 74.664062 40 C 79.75 40 82.828125 43.40625 81.625 48.492188 C 80.226562 54.398438 76.476562 56 69.585938 56 L 66.289062 56 L 65.242188 62 L 59.945312 62 Z M 26.539062 44 L 25.03125 52 L 28.453125 52 C 31.414062 52 34.164062 51.664062 34.625 47.25 C 34.796875 45.539062 34.085938 44 30.664062 44 Z M 68.539062 44 L 67.03125 52 L 70.453125 52 C 73.414062 52 76.164062 51.664062 76.625 47.25 C 76.796875 45.539062 76.085938 44 72.664062 44 Z M 68.539062 44 "/>
</g>
</svg>
