<svg xmlns="http://www.w3.org/2000/svg" enable-background="new 0 0 47.5 47.5" viewBox="0 0 47.5 47.5"><defs><clipPath id="a" clipPathUnits="userSpaceOnUse"><path d="M 0,38 38,38 38,0 0,0 0,38 Z"/></clipPath></defs><g clip-path="url(#a)" transform="matrix(1.25 0 0 -1.25 0 47.5)"><path fill="#ffac33" d="M 0,0 C 0,0 0,2 2,2 4,2 4,0 4,0 l 0,-2 c 0,0 0,-2 -2,-2 -2,0 -2,2 -2,2 l 0,2 z" transform="translate(17 35)"/><path fill="#ffac33" d="M 0,0 C 0,0 2,0 2,-2 2,-4 0,-4 0,-4 l -2,0 c 0,0 -2,0 -2,2 0,2 2,2 2,2 l 2,0 z" transform="translate(35 21)"/><path fill="#ffac33" d="M 0,0 C 0,0 2,0 2,-2 2,-4 0,-4 0,-4 l -2,0 c 0,0 -2,0 -2,2 0,2 2,2 2,2 l 2,0 z" transform="translate(5 21)"/><path fill="#ffac33" d="m 0,0 c 0,0 1.414,-1.414 0,-2.828 -1.414,-1.414 -2.828,0 -2.828,0 l -1.415,1.414 c 0,0 -1.414,1.414 0,2.829 1.415,1.414 2.829,0 2.829,0 L 0,0 Z" transform="translate(10.121 29.706)"/><path fill="#ffac33" d="m 0,0 c 0,0 1.414,-1.414 0,-2.828 -1.414,-1.414 -2.828,0 -2.828,0 l -1.414,1.414 c 0,0 -1.414,1.414 0,2.828 1.414,1.414 2.828,0 2.828,0 L 0,0 Z" transform="translate(31.121 8.707)"/><path fill="#ffac33" d="m 0,0 c 0,0 -1.414,-1.414 -2.828,0 -1.414,1.414 0,2.828 0,2.828 l 1.414,1.414 c 0,0 1.414,1.414 2.828,0 1.414,-1.414 0,-2.828 0,-2.828 L 0,0 Z" transform="translate(30.708 26.879)"/><path fill="#ffac33" d="m 0,0 c 0,0 -1.414,-1.414 -2.828,0 -1.414,1.414 0,2.828 0,2.828 l 1.414,1.414 c 0,0 1.414,1.414 2.828,0 1.414,-1.414 0,-2.828 0,-2.828 L 0,0 Z" transform="translate(9.708 5.879)"/><path fill="#ffac33" d="M 0,0 C 0,0 0,2 2,2 4,2 4,0 4,0 l 0,-2 c 0,0 0,-2 -2,-2 -2,0 -2,2 -2,2 l 0,2 z" transform="translate(17 5)"/><path fill="#ffac33" d="m 0,0 c 0,5.523 -4.478,10 -10,10 -5.523,0 -10,-4.477 -10,-10 0,-5.522 4.477,-10 10,-10 5.522,0 10,4.478 10,10" transform="translate(29 19)"/></g></svg>